<svg width="40" height="39" viewBox="0 0 40 39" fill="none" xmlns="http://www.w3.org/2000/svg">
<path d="M30.68 6.59814C30.2053 6.59814 29.7413 6.73235 29.3466 6.9838C28.952 7.23525 28.6443 7.59264 28.4627 8.01079C28.281 8.42894 28.2335 8.88905 28.3261 9.33295C28.4187 9.77685 28.6473 10.1846 28.9829 10.5046C29.3186 10.8247 29.7462 11.0426 30.2118 11.1309C30.6773 11.2192 31.1599 11.1739 31.5984 11.0007C32.037 10.8275 32.4118 10.5342 32.6755 10.1579C32.9392 9.78154 33.08 9.33911 33.08 8.88651C33.08 8.2796 32.8271 7.69754 32.3771 7.26839C31.927 6.83924 31.3165 6.59814 30.68 6.59814ZM39.88 11.213C39.8411 9.6308 39.5303 8.06537 38.96 6.57907C38.4515 5.30737 37.66 4.15583 36.64 3.20372C35.6496 2.22625 34.4391 1.47634 33.1 1.0107C31.5453 0.450353 29.9017 0.147238 28.24 0.114419C26.12 -1.01377e-07 25.44 0 20 0C14.56 0 13.88 -1.01377e-07 11.76 0.114419C10.0983 0.147238 8.45469 0.450353 6.9 1.0107C5.56335 1.48105 4.35387 2.23032 3.36 3.20372C2.33485 4.14801 1.54835 5.30223 1.06 6.57907C0.472322 8.06145 0.15442 9.62862 0.12 11.213C-1.10039e-07 13.2344 0 13.8828 0 19.0698C0 24.2567 -1.10039e-07 24.9051 0.12 26.9265C0.15442 28.5109 0.472322 30.0781 1.06 31.5605C1.54835 32.8373 2.33485 33.9915 3.36 34.9358C4.35387 35.9092 5.56335 36.6585 6.9 37.1288C8.45469 37.6892 10.0983 37.9923 11.76 38.0251C13.88 38.1395 14.56 38.1395 20 38.1395C25.44 38.1395 26.12 38.1395 28.24 38.0251C29.9017 37.9923 31.5453 37.6892 33.1 37.1288C34.4391 36.6632 35.6496 35.9133 36.64 34.9358C37.6645 33.9872 38.4567 32.8347 38.96 31.5605C39.5303 30.0742 39.8411 28.5087 39.88 26.9265C39.88 24.9051 40 24.2567 40 19.0698C40 13.8828 40 13.2344 39.88 11.213ZM36.28 26.6977C36.2654 27.9082 36.0355 29.1075 35.6 30.2447C35.2807 31.0746 34.7678 31.8244 34.1 32.4377C33.4513 33.0679 32.6665 33.556 31.8 33.8679C30.6074 34.2832 29.3495 34.5024 28.08 34.5163C26.08 34.6116 25.34 34.6307 20.08 34.6307C14.82 34.6307 14.08 34.6307 12.08 34.5163C10.7618 34.5398 9.44919 34.3463 8.2 33.9442C7.37156 33.6163 6.62271 33.1295 6 32.514C5.33618 31.9013 4.82969 31.1508 4.52 30.3209C4.03171 29.1675 3.76089 27.9409 3.72 26.6977C3.72 24.7907 3.6 24.0851 3.6 19.0698C3.6 14.0544 3.6 13.3488 3.72 11.4419C3.72896 10.2043 3.9659 8.97794 4.42 7.81861C4.77209 7.01369 5.31253 6.29619 6 5.72093C6.60763 5.06525 7.35858 4.54451 8.2 4.19535C9.4191 3.7759 10.704 3.55666 12 3.54698C14 3.54698 14.74 3.43256 20 3.43256C25.26 3.43256 26 3.43256 28 3.54698C29.2695 3.56086 30.5274 3.7801 31.72 4.19535C32.6289 4.51697 33.4446 5.03985 34.1 5.72093C34.7554 6.30671 35.2675 7.02289 35.6 7.81861C36.0445 8.97983 36.2746 10.2057 36.28 11.4419C36.38 13.3488 36.4 14.0544 36.4 19.0698C36.4 24.0851 36.38 24.7907 36.28 26.6977ZM20 9.28698C17.9716 9.29075 15.9899 9.8677 14.3053 10.9449C12.6207 12.0222 11.3088 13.5514 10.5353 15.3393C9.76178 17.1272 9.56145 19.0935 9.95959 20.99C10.3577 22.8864 11.3365 24.6277 12.7722 25.994C14.2078 27.3602 16.036 28.29 18.0257 28.666C20.0154 29.0419 22.0773 28.847 23.9509 28.1061C25.8245 27.3651 27.4258 26.1112 28.5523 24.5028C29.6788 22.8945 30.28 21.0038 30.28 19.0698C30.2826 17.7828 30.0184 16.5079 29.5025 15.3187C28.9866 14.1294 28.2291 13.0491 27.2737 12.1399C26.3184 11.2307 25.1839 10.5106 23.9356 10.021C22.6873 9.53141 21.3498 9.28195 20 9.28698ZM20 25.42C18.6828 25.42 17.3951 25.0476 16.2999 24.3498C15.2047 23.652 14.351 22.6603 13.847 21.4999C13.3429 20.3395 13.211 19.0627 13.468 17.8309C13.7249 16.5991 14.3593 15.4676 15.2907 14.5795C16.2221 13.6914 17.4088 13.0866 18.7007 12.8416C19.9926 12.5965 21.3317 12.7223 22.5487 13.2029C23.7656 13.6836 24.8058 14.4975 25.5376 15.5418C26.2694 16.5861 26.66 17.8138 26.66 19.0698C26.66 19.9037 26.4877 20.7295 26.153 21.4999C25.8183 22.2703 25.3278 22.9704 24.7093 23.5601C24.0909 24.1497 23.3567 24.6175 22.5487 24.9366C21.7406 25.2558 20.8746 25.42 20 25.42Z" fill="#290F1E"/>
</svg>
