<svg width="32" height="30" viewBox="0 0 32 30" fill="none" xmlns="http://www.w3.org/2000/svg">
<path d="M16 0.9375C7.716 0.9375 1 7.23328 1 15C1 22.7667 7.716 29.0625 16 29.0625C24.284 29.0625 31 22.7663 31 15C31 7.23328 24.284 0.9375 16 0.9375ZM20.4765 20.9428C19.452 21.7641 18.005 22.1742 16.1345 22.1742C14.2245 22.1742 12.7215 21.7697 11.6275 20.9611C10.533 20.1516 9.986 19.0402 9.986 17.625H12.8795C12.9735 18.2466 13.158 18.7106 13.432 19.0186C13.935 19.5788 14.7955 19.8581 16.015 19.8581C16.7455 19.8581 17.338 19.785 17.7935 19.6364C18.6585 19.3533 19.0905 18.8278 19.0905 18.0591C19.0905 17.6105 18.8785 17.2627 18.4555 17.0161C18.0315 16.7761 17.36 16.5638 16.441 16.38L14.8705 16.057C13.3265 15.7364 12.266 15.3895 11.689 15.0145C10.7105 14.3869 10.222 13.4058 10.222 12.0708C10.222 10.8525 10.7005 9.84094 11.6565 9.03516C12.6125 8.22891 14.018 7.82625 15.8715 7.82625C17.4195 7.82625 18.7385 8.20594 19.8325 8.96578C20.9245 9.72563 21.4975 10.8286 21.5515 12.2742H18.6375C18.584 11.4563 18.194 10.875 17.4675 10.53C16.983 10.3027 16.3805 10.1883 15.661 10.1883C14.86 10.1883 14.2215 10.3359 13.744 10.6313C13.2665 10.9266 13.027 11.3386 13.027 11.8678C13.027 12.3539 13.2625 12.7167 13.734 12.9562C14.036 13.1166 14.6785 13.3041 15.6615 13.5192L18.2075 14.0822C19.3225 14.3278 20.1595 14.6573 20.7165 15.0689C21.581 15.7087 22.0135 16.635 22.0135 17.8462C22.0135 19.0889 21.502 20.1216 20.4765 20.9428Z" fill="#C755B5"/>
</svg>
