<svg width="47" height="51" viewBox="0 0 47 51" fill="none" xmlns="http://www.w3.org/2000/svg">
<path d="M22.5522 3.72736C12.1534 4.1905 3.94996 12.3233 3.98129 22.0992C3.98644 24.9768 4.71473 27.812 6.10608 30.3709L4.03417 39.8209C4.00889 39.939 4.0155 40.0613 4.05341 40.1764C4.09132 40.2915 4.15929 40.3956 4.25104 40.4793C4.34279 40.563 4.45535 40.6234 4.57832 40.655C4.70129 40.6866 4.8307 40.6883 4.95458 40.6601L14.8128 38.4666C17.4238 39.6872 20.2902 40.3404 23.2023 40.3785C33.8302 40.5322 42.6897 32.607 43.0207 22.6309C43.3771 11.9324 33.979 3.2142 22.5522 3.7255V3.72736ZM34.3159 32.1957C32.8951 33.535 31.2089 34.5958 29.3539 35.3174C27.4989 36.0391 25.5116 36.4073 23.5059 36.401C21.1461 36.4079 18.817 35.8954 16.7026 34.9042L15.3298 34.2613L9.28446 35.6063L10.5574 29.8059L9.87979 28.561C8.78136 26.5468 8.21175 24.312 8.21912 22.0455C8.21912 18.2107 9.80929 14.6038 12.6959 11.8935C15.573 9.19928 19.4575 7.68747 23.5059 7.68628C27.591 7.68628 31.4293 9.17945 34.3159 11.8916C35.738 13.2174 36.8666 14.798 37.6356 16.5411C38.4046 18.2842 38.7986 20.1548 38.7946 22.0437C38.7946 25.8451 37.179 29.5095 34.3159 32.1976V32.1957Z" fill="black"/>
<path d="M32.9823 26.0193L29.2007 25.0004C28.9567 24.9341 28.6983 24.9311 28.4527 24.9918C28.207 25.0524 27.9831 25.1744 27.8044 25.3449L26.8801 26.2305C26.6888 26.4137 26.4447 26.5396 26.1783 26.5923C25.9118 26.645 25.6348 26.6223 25.382 26.5269C23.594 25.847 19.8301 22.705 18.8685 21.1322C18.7338 20.9101 18.6722 20.6549 18.6917 20.3994C18.7113 20.1439 18.811 19.8998 18.9782 19.6983L19.785 18.7165C19.9404 18.5283 20.0387 18.3038 20.0694 18.0669C20.1001 17.8299 20.062 17.5895 19.9593 17.3715L18.3692 13.9924C18.2792 13.8036 18.1442 13.637 17.9747 13.5058C17.8052 13.3747 17.6059 13.2825 17.3924 13.2365C17.1789 13.1906 16.957 13.1921 16.7442 13.241C16.5314 13.2898 16.3335 13.3847 16.166 13.5182C15.1105 14.3574 13.8572 15.6301 13.7064 17.0436C13.4381 19.5316 14.5739 22.668 18.8705 26.4361C23.8349 30.7878 27.8123 31.3639 30.3992 30.773C31.868 30.4395 33.043 29.1001 33.7813 28.0052C33.8993 27.8313 33.9726 27.6336 33.9952 27.428C34.0178 27.2225 33.9891 27.0147 33.9114 26.8216C33.8337 26.6284 33.7091 26.4552 33.5477 26.3158C33.3864 26.1765 33.1927 26.0749 32.9823 26.0193Z" fill="black"/>
</svg>
